<svg width="50" height="50" viewBox="0 0 50 50" fill="none" xmlns="http://www.w3.org/2000/svg">
<rect width="50" height="50" rx="25" fill="white"/>
<path fill-rule="evenodd" clip-rule="evenodd" d="M22.5932 34.75H27.4075C30.7886 34.75 32.4797 34.75 33.6941 33.9538C34.2182 33.6105 34.6695 33.1673 35.0222 32.6495C35.8337 31.4578 35.8337 29.7971 35.8337 26.4777C35.8337 23.1584 35.8337 21.4976 35.0222 20.306C34.6695 19.7881 34.2182 19.3449 33.6941 19.0016C32.9141 18.4892 31.9369 18.3061 30.4408 18.2411C29.7269 18.2411 29.1127 17.7103 28.9729 17.0224C28.8661 16.5185 28.5886 16.0669 28.1873 15.744C27.786 15.4211 27.2856 15.2466 26.7705 15.2501H23.2302C22.1598 15.2501 21.2379 15.9921 21.0277 17.0224C20.888 17.7103 20.2737 18.2411 19.5598 18.2411C18.0648 18.3061 17.0877 18.4903 16.3066 19.0016C15.7828 19.345 15.3319 19.7882 14.9795 20.306C14.167 21.4976 14.167 23.1573 14.167 26.4777C14.167 29.7981 14.167 31.4567 14.9784 32.6495C15.3294 33.1651 15.7801 33.6082 16.3066 33.9538C17.521 34.75 19.2121 34.75 22.5932 34.75ZM25.0003 22.0458C22.5076 22.0458 20.4861 24.0294 20.4861 26.4766C20.4861 28.9239 22.5087 30.9107 25.0003 30.9107C27.492 30.9107 29.5146 28.9261 29.5146 26.4788C29.5146 24.0316 27.492 22.0458 25.0003 22.0458ZM25.0003 23.8181C23.5053 23.8181 22.292 25.0087 22.292 26.4777C22.292 27.9456 23.5053 29.1362 25.0003 29.1362C26.4953 29.1362 27.7087 27.9456 27.7087 26.4777C27.7087 25.0098 26.4953 23.8181 25.0003 23.8181ZM30.1158 22.932C30.1158 22.4423 30.5199 22.0458 31.0193 22.0458H32.2218C32.7202 22.0458 33.1253 22.4423 33.1253 22.932C33.123 23.1691 33.0267 23.3956 32.8575 23.5618C32.6883 23.728 32.46 23.8202 32.2229 23.8181H31.0193C30.9018 23.8193 30.7852 23.7973 30.6762 23.7533C30.5672 23.7094 30.4679 23.6445 30.384 23.5622C30.3001 23.4799 30.2333 23.3819 30.1872 23.2738C30.1412 23.1656 30.117 23.0495 30.1158 22.932Z" fill="#121212"/>
</svg>
