<svg width="24" height="24" viewBox="0 0 24 24" fill="none" xmlns="http://www.w3.org/2000/svg">
<path d="M8.40033 9.5999C9.35511 9.5999 10.2708 9.22062 10.9459 8.54549C11.621 7.87036 12.0003 6.95468 12.0003 5.9999C12.0003 5.04512 11.621 4.12945 10.9459 3.45432C10.2708 2.77919 9.35511 2.3999 8.40033 2.3999C7.44555 2.3999 6.52988 2.77919 5.85475 3.45432C5.17961 4.12945 4.80033 5.04512 4.80033 5.9999C4.80033 6.95468 5.17961 7.87036 5.85475 8.54549C6.52988 9.22062 7.44555 9.5999 8.40033 9.5999ZM17.4003 10.7999C18.196 10.7999 18.959 10.4838 19.5217 9.92122C20.0843 9.35861 20.4003 8.59555 20.4003 7.7999C20.4003 7.00425 20.0843 6.24119 19.5217 5.67858C18.959 5.11597 18.196 4.7999 17.4003 4.7999C16.6047 4.7999 15.8416 5.11597 15.279 5.67858C14.7164 6.24119 14.4003 7.00425 14.4003 7.7999C14.4003 8.59555 14.7164 9.35861 15.279 9.92122C15.8416 10.4838 16.6047 10.7999 17.4003 10.7999ZM1.93833 19.7135C1.70265 19.5673 1.51334 19.3571 1.39246 19.1075C1.27158 18.8579 1.22409 18.5791 1.25553 18.3035C1.47676 16.5648 2.32443 14.9664 3.6397 13.8078C4.95498 12.6493 6.64758 12.0102 8.40033 12.0102C10.1531 12.0102 11.8457 12.6493 13.161 13.8078C14.4762 14.9664 15.3239 16.5648 15.5451 18.3035C15.6147 18.8639 15.3387 19.4075 14.8611 19.7123C12.9331 20.9481 10.6904 21.6033 8.40033 21.5999C6.10999 21.6039 3.86682 20.9491 1.93833 19.7135ZM17.4003 19.1999H17.2731C17.3571 18.8435 17.3787 18.4667 17.3307 18.0803C17.1256 16.4307 16.4659 14.8706 15.4251 13.5743C16.0948 13.3104 16.8106 13.1831 17.5302 13.1998C18.2498 13.2166 18.9588 13.377 19.6156 13.6717C20.2723 13.9664 20.8635 14.3895 21.3544 14.916C21.8452 15.4424 22.2259 16.0618 22.4739 16.7375C22.5498 16.9532 22.5481 17.1885 22.4693 17.4031C22.3904 17.6177 22.2393 17.7982 22.0419 17.9135C20.6411 18.7577 19.0359 19.2026 17.4003 19.1999Z" fill="white"/>
</svg>
